<svg width="773" height="339" viewBox="0 0 773 339" fill="none" xmlns="http://www.w3.org/2000/svg">
<g clip-path="url(#clip0_75_362)">
<rect y="296.917" width="287" height="53" rx="8" transform="rotate(-37.8168 0 296.917)" fill="#D86072"/>
<path d="M34.24 307.001L32.6802 304.991L38.2922 300.635C38.9621 300.115 39.3556 299.526 39.4727 298.868C39.5801 298.198 39.3836 297.54 38.8833 296.895C38.3633 296.226 37.7701 295.866 37.1036 295.816C36.4371 295.766 35.7689 296.001 35.099 296.521L29.7903 300.641L37.6336 310.747L35.112 312.704L25.5912 300.437L33.1939 294.536C33.8764 294.007 34.5785 293.593 35.3001 293.297C36.0343 292.99 36.7551 292.836 37.4623 292.834C38.1822 292.822 38.8746 292.983 39.5394 293.318C40.2042 293.652 40.8261 294.193 41.4049 294.938C41.9739 295.671 42.3331 296.395 42.4825 297.11C42.6319 297.824 42.6066 298.522 42.4067 299.204C42.2096 299.863 41.8665 300.504 41.3775 301.127C40.8914 301.727 40.307 302.292 39.6245 302.822L34.24 307.001ZM50.0175 301.135L40.4967 288.868L48.8199 282.408C49.7678 281.673 50.6924 281.168 51.5936 280.893C52.4976 280.597 53.3614 280.575 54.1848 280.827C54.9985 281.066 55.7389 281.615 56.406 282.475C56.8573 283.056 57.1387 283.628 57.2504 284.189C57.3621 284.751 57.3328 285.3 57.1625 285.837C57.0048 286.365 56.746 286.88 56.3863 287.382C56.0167 287.871 55.5812 288.341 55.0798 288.791L54.6966 288.845C55.5912 288.171 56.3768 287.683 57.0535 287.38C57.7204 287.065 58.3302 286.977 58.883 287.115C59.4386 287.23 59.9813 287.629 60.511 288.312L62.7772 291.232L60.2556 293.189L58.1218 290.44C57.7589 289.972 57.3971 289.676 57.0366 289.55C56.6663 289.412 56.227 289.46 55.7188 289.692C55.2232 289.915 54.5772 290.335 53.7809 290.953L49.0221 294.647L52.5391 299.178L50.0175 301.135ZM47.4917 292.675L53.2933 288.172C54.0011 287.623 54.4059 287.035 54.5075 286.409C54.6219 285.774 54.4534 285.165 54.0021 284.584C53.5705 284.028 53.0522 283.751 52.4474 283.755C51.8552 283.749 51.2052 284.02 50.4974 284.57L44.6958 289.073L47.4917 292.675ZM73.1719 283.559C71.5414 284.824 69.9485 285.656 68.3932 286.052C66.8408 286.427 65.3871 286.381 64.032 285.913C62.6895 285.436 61.5032 284.534 60.4731 283.207C59.4333 281.867 58.8488 280.488 58.7197 279.069C58.6033 277.64 58.924 276.227 59.6818 274.829C60.4424 273.408 61.638 272.065 63.2685 270.799C64.9116 269.524 66.5094 268.699 68.0618 268.324C69.6044 267.937 71.047 267.982 72.3895 268.459C73.7446 268.926 74.9421 269.83 75.9819 271.17C77.012 272.497 77.5853 273.875 77.7017 275.304C77.8308 276.722 77.5213 278.137 76.7733 279.548C76.0155 280.947 74.815 282.283 73.1719 283.559ZM71.4796 281.378C72.4908 280.594 73.2578 279.755 73.7808 278.863C74.3163 277.961 74.5587 277.034 74.5077 276.081C74.4694 275.119 74.0823 274.163 73.3466 273.215C72.6108 272.267 71.7814 271.655 70.8583 271.379C69.9479 271.094 68.9894 271.098 67.9829 271.393C66.9793 271.666 65.9719 272.195 64.9607 272.979C63.9622 273.754 63.1937 274.604 62.6553 275.528C62.1071 276.44 61.8522 277.377 61.8905 278.34C61.9288 279.302 62.3159 280.258 63.0516 281.206C63.7874 282.154 64.6168 282.766 65.5399 283.042C66.463 283.318 67.4341 283.303 68.4532 282.998C69.4723 282.693 70.4811 282.153 71.4796 281.378ZM80.6906 257.672C82.0683 256.603 83.3461 255.874 84.5238 255.487C85.7016 255.099 86.7829 254.979 87.7679 255.126C88.7557 255.25 89.6478 255.591 90.4444 256.147C91.2535 256.694 91.972 257.372 92.5999 258.181C93.2277 258.99 93.6983 259.87 94.0117 260.822C94.3377 261.764 94.442 262.746 94.3244 263.769C94.2098 264.769 93.8235 265.798 93.1657 266.856C92.5107 267.891 91.526 268.918 90.2114 269.939L83.1965 275.383L73.6756 263.117L80.6906 257.672ZM84.0405 271.265L88.477 267.821C89.3871 267.115 90.0557 266.424 90.483 265.748C90.9131 265.05 91.158 264.373 91.2176 263.72C91.2772 263.066 91.1964 262.44 90.9753 261.842C90.7542 261.244 90.4426 260.685 90.0403 260.167C89.6381 259.649 89.1797 259.215 88.665 258.865C88.1504 258.515 87.5738 258.294 86.9354 258.202C86.297 258.11 85.5911 258.193 84.8176 258.449C84.0568 258.695 83.2213 259.171 82.3113 259.877L77.8748 263.321L84.0405 271.265ZM106.913 248.287L101.601 241.442L104.123 239.485L109.641 246.595C110.269 247.404 110.698 248.205 110.929 248.998C111.172 249.781 111.241 250.548 111.135 251.299C111.029 252.049 110.788 252.783 110.413 253.5C110.04 254.194 109.557 254.863 108.962 255.506C108.381 256.14 107.717 256.746 106.971 257.325C106.2 257.924 105.423 258.436 104.64 258.862C103.856 259.287 103.076 259.6 102.298 259.798C101.523 259.974 100.765 260.015 100.025 259.922C99.2838 259.829 98.5579 259.572 97.8468 259.151C97.1484 258.721 96.4853 258.102 95.8574 257.293L90.3392 250.183L92.8608 248.226L98.173 255.07C98.9186 256.031 99.6772 256.617 100.449 256.828C101.211 257.027 101.994 256.966 102.798 256.645C103.605 256.302 104.432 255.802 105.279 255.145C106.101 254.507 106.765 253.85 107.272 253.172C107.783 252.473 108.036 251.729 108.033 250.942C108.032 250.132 107.659 249.247 106.913 248.287ZM127.446 233.96C128.098 235.034 128.402 236.145 128.361 237.291C128.319 238.438 127.941 239.582 127.227 240.723C126.513 241.865 125.467 242.97 124.089 244.039C122.939 244.932 121.781 245.619 120.614 246.099C119.46 246.569 118.329 246.809 117.222 246.817C116.128 246.816 115.087 246.571 114.099 246.082C113.102 245.58 112.191 244.798 111.367 243.736C110.543 242.674 110.012 241.598 109.773 240.507C109.534 239.417 109.55 238.341 109.82 237.281C110.094 236.198 110.601 235.155 111.343 234.154C112.088 233.131 113.036 232.172 114.186 231.28C115.563 230.21 116.899 229.478 118.192 229.082C119.497 228.676 120.715 228.602 121.846 228.858C122.967 229.102 123.966 229.684 124.842 230.604L122.339 232.547C121.763 232.143 121.131 231.904 120.445 231.829C119.762 231.732 119.038 231.817 118.275 232.086C117.511 232.354 116.712 232.813 115.878 233.46C114.842 234.264 114.059 235.135 113.53 236.072C112.992 236.996 112.753 237.941 112.814 238.907C112.865 239.859 113.248 240.797 113.965 241.72C114.671 242.63 115.479 243.228 116.39 243.514C117.3 243.8 118.275 243.803 119.314 243.523C120.342 243.231 121.375 242.682 122.412 241.878C123.246 241.231 123.881 240.575 124.319 239.912C124.768 239.239 125.036 238.565 125.121 237.892C125.218 237.209 125.159 236.545 124.944 235.903L127.446 233.96ZM122.363 225.328L135.294 215.292L136.927 217.396L123.997 227.432L122.363 225.328ZM129.005 223.12L131.526 221.163L139.62 231.59L137.098 233.548L129.005 223.12ZM148.715 204.875C150.093 203.806 151.37 203.077 152.548 202.69C153.726 202.302 154.807 202.182 155.792 202.329C156.78 202.453 157.672 202.794 158.469 203.35C159.278 203.897 159.996 204.575 160.624 205.384C161.252 206.193 161.723 207.073 162.036 208.025C162.362 208.967 162.466 209.949 162.349 210.972C162.234 211.972 161.848 213.001 161.19 214.059C160.535 215.094 159.55 216.121 158.236 217.142L151.221 222.586L141.7 210.32L148.715 204.875ZM152.065 218.468L156.501 215.024C157.411 214.318 158.08 213.627 158.507 212.951C158.937 212.253 159.182 211.576 159.242 210.923C159.301 210.269 159.221 209.643 159 209.045C158.779 208.447 158.467 207.889 158.065 207.37C157.662 206.852 157.204 206.418 156.689 206.068C156.175 205.718 155.598 205.497 154.96 205.405C154.321 205.313 153.615 205.396 152.842 205.652C152.081 205.898 151.246 206.374 150.336 207.08L145.899 210.524L152.065 218.468ZM166.433 202.577L168.772 205.591L178.233 198.248L179.867 200.353L167.884 209.653L158.363 197.386L170.327 188.101L171.96 190.205L162.518 197.533L164.888 200.586L172.623 194.582L174.168 196.573L166.433 202.577ZM178.432 194.843L180.992 192.856C181.376 193.247 181.876 193.487 182.492 193.576C183.111 193.642 183.783 193.556 184.509 193.317C185.225 193.065 185.937 192.664 186.644 192.115C187.289 191.615 187.766 191.133 188.075 190.67C188.384 190.207 188.542 189.771 188.548 189.361C188.554 188.952 188.42 188.57 188.145 188.216C187.88 187.875 187.553 187.714 187.163 187.733C186.763 187.74 186.247 187.897 185.615 188.205C184.973 188.5 184.161 188.928 183.178 189.489C182.405 189.927 181.639 190.298 180.883 190.602C180.116 190.893 179.38 191.08 178.674 191.162C177.981 191.234 177.333 191.169 176.731 190.968C176.132 190.744 175.607 190.342 175.156 189.76C174.597 189.04 174.309 188.251 174.291 187.394C174.286 186.526 174.571 185.627 175.144 184.696C175.718 183.765 176.592 182.843 177.768 181.931C179.537 180.557 181.19 179.882 182.727 179.904C184.266 179.904 185.534 180.572 186.529 181.906L184.064 183.819C183.434 183.112 182.702 182.82 181.865 182.943C181.041 183.056 180.193 183.451 179.321 184.128C178.512 184.755 177.935 185.395 177.591 186.048C177.259 186.69 177.319 187.302 177.77 187.883C177.947 188.111 178.167 188.264 178.431 188.343C178.685 188.409 179.012 188.388 179.414 188.279C179.815 188.17 180.319 187.971 180.926 187.682C181.532 187.394 182.265 187.007 183.124 186.523C183.923 186.065 184.682 185.698 185.401 185.424C186.123 185.127 186.8 184.956 187.433 184.91C188.068 184.842 188.662 184.929 189.213 185.169C189.764 185.41 190.276 185.833 190.746 186.44C191.325 187.186 191.635 187.989 191.674 188.849C191.717 189.687 191.452 190.571 190.878 191.502C190.317 192.424 189.399 193.38 188.122 194.371C187.212 195.077 186.336 195.605 185.493 195.955C184.641 196.293 183.835 196.493 183.074 196.557C182.314 196.621 181.623 196.579 181.003 196.433C180.383 196.286 179.851 196.071 179.408 195.787C178.978 195.493 178.652 195.179 178.432 194.843ZM186.459 175.58L188.981 173.622L198.502 185.889L195.98 187.846L186.459 175.58ZM209.011 178.127C207.873 179.01 206.74 179.677 205.612 180.128C204.496 180.569 203.397 180.784 202.315 180.773C201.245 180.752 200.23 180.487 199.267 179.978C198.305 179.469 197.427 178.703 196.632 177.679C195.828 176.643 195.3 175.584 195.048 174.503C194.8 173.4 194.801 172.305 195.052 171.219C195.315 170.124 195.813 169.069 196.545 168.055C197.28 167.019 198.229 166.049 199.392 165.147C200.77 164.078 202.11 163.351 203.413 162.968C204.705 162.572 205.906 162.501 207.014 162.755C208.135 162.999 209.106 163.572 209.928 164.474L207.501 166.357C206.944 165.979 206.334 165.754 205.67 165.682C205.01 165.587 204.297 165.674 203.534 165.943C202.76 166.199 201.944 166.66 201.084 167.327C199.985 168.181 199.18 169.089 198.671 170.051C198.175 171.003 197.975 171.958 198.071 172.917C198.166 173.876 198.553 174.791 199.23 175.663C199.887 176.51 200.633 177.106 201.468 177.45C202.292 177.782 203.199 177.828 204.187 177.588C205.188 177.338 206.263 176.766 207.414 175.873C208.298 175.187 208.987 174.47 209.481 173.722C209.977 172.952 210.3 172.195 210.451 171.45C210.592 170.692 210.566 169.993 210.373 169.353L211.08 168.228C212.181 169.986 212.547 171.737 212.179 173.481C211.824 175.215 210.768 176.764 209.011 178.127ZM214.261 173.658C213.957 173.266 213.634 172.797 213.292 172.253C212.94 171.695 212.601 171.128 212.275 170.551C211.939 169.961 211.631 169.42 211.351 168.929L205.739 173.285L204.488 171.673L211.806 165.993L216.441 171.965L214.261 173.658ZM229.592 157.748L229.046 158.689L221.217 148.602L223.739 146.645L233.26 158.912L230.738 160.869L213.303 158.877L213.849 157.937L221.619 167.947L219.097 169.904L209.576 157.637L212.098 155.68L229.592 157.748Z" fill="#FFF6EE"/>
</g>
<g clip-path="url(#clip1_75_362)">
<rect x="660.765" y="16.9999" width="113" height="53" rx="26.5" transform="rotate(13.6289 660.765 16.9999)" fill="#FFF6EE"/>
<path d="M685.969 51.0332L688.01 42.6132L691.113 43.3653L688.992 52.1119C688.751 53.107 688.392 53.942 687.915 54.6167C687.455 55.2952 686.898 55.827 686.244 56.2119C685.591 56.5969 684.868 56.8659 684.073 57.019C683.298 57.1604 682.474 57.1992 681.6 57.1356C680.742 57.0757 679.854 56.9345 678.937 56.7121C677.988 56.4821 677.103 56.1935 676.282 55.8462C675.461 55.4989 674.73 55.083 674.09 54.5986C673.47 54.1024 672.965 53.5356 672.576 52.898C672.188 52.2605 671.936 51.5327 671.822 50.7147C671.723 49.9004 671.794 48.9957 672.035 48.0006L674.156 39.254L677.258 40.0061L675.216 48.4262C674.93 49.6079 674.945 50.5663 675.26 51.3014C675.58 52.021 676.115 52.5954 676.867 53.0247C677.639 53.4422 678.545 53.7772 679.587 54.0298C680.598 54.2749 681.526 54.3847 682.372 54.3593C683.237 54.3221 683.976 54.0568 684.59 53.5635C685.223 53.0584 685.682 52.215 685.969 51.0332ZM695.144 44.3428L698.247 45.095L694.588 60.1857L691.486 59.4336L695.144 44.3428ZM708.997 45.0838L711.231 46.564L699.395 64.3149L697.184 62.8404L708.997 45.0838ZM725.306 60.5708L727.347 52.1507L730.449 52.9029L728.329 61.6494C728.087 62.6446 727.729 63.4796 727.252 64.1543C726.791 64.8328 726.234 65.3645 725.581 65.7495C724.928 66.1344 724.204 66.4035 723.41 66.5566C722.635 66.6979 721.81 66.7368 720.937 66.6731C720.079 66.6133 719.191 66.4721 718.274 66.2497C717.325 66.0197 716.44 65.7311 715.619 65.3838C714.798 65.0365 714.067 64.6206 713.427 64.1362C712.807 63.64 712.302 63.0731 711.913 62.4356C711.525 61.798 711.273 61.0702 711.159 60.2522C711.06 59.438 711.131 58.5333 711.372 57.5381L713.493 48.7916L716.595 49.5437L714.553 57.9637C714.267 59.1455 714.281 60.1039 714.597 60.839C714.917 61.5585 715.452 62.1329 716.204 62.5622C716.976 62.9797 717.882 63.3148 718.924 63.5674C719.935 63.8124 720.863 63.9223 721.709 63.8968C722.574 63.8596 723.313 63.5944 723.927 63.1011C724.56 62.596 725.019 61.7525 725.306 60.5708ZM745.517 56.5562L749.296 57.4724L740.14 64.0686L740.024 64.1393L733.112 69.5263L729.333 68.6102L738.801 61.645L738.888 61.592L745.517 56.5562ZM737.004 54.4921L740.51 62.0345L740.539 62.1157L745.707 72.5801L741.765 71.6244L738.181 63.5936L738.122 63.53L733.226 53.576L737.004 54.4921Z" fill="#262628"/>
</g>
<rect x="661.133" y="17.6037" width="112" height="52" rx="26" transform="rotate(13.6289 661.133 17.6037)" stroke="#262628"/>
<rect x="568.276" y="89.9999" width="204" height="244" fill="#D6DC82"/>
<path d="M603.004 120.472C604.748 120.472 606.204 120.68 607.372 121.096C608.54 121.512 609.468 122.08 610.156 122.8C610.86 123.504 611.356 124.32 611.644 125.248C611.948 126.176 612.1 127.152 612.1 128.176C612.1 129.2 611.932 130.184 611.596 131.128C611.276 132.072 610.756 132.912 610.036 133.648C609.332 134.368 608.396 134.944 607.228 135.376C606.076 135.792 604.668 136 603.004 136H594.124V120.472H603.004ZM597.316 133.264H602.932C604.084 133.264 605.036 133.128 605.788 132.856C606.556 132.568 607.164 132.184 607.612 131.704C608.06 131.224 608.38 130.68 608.572 130.072C608.764 129.464 608.86 128.832 608.86 128.176C608.86 127.52 608.764 126.896 608.572 126.304C608.38 125.712 608.06 125.184 607.612 124.72C607.164 124.256 606.556 123.888 605.788 123.616C605.036 123.344 604.084 123.208 602.932 123.208H597.316V133.264ZM615.674 120.472H618.866V136H615.674V120.472ZM631.927 136.312C630.487 136.312 629.183 136.144 628.015 135.808C626.863 135.472 625.863 134.968 625.015 134.296C624.183 133.624 623.543 132.792 623.095 131.8C622.647 130.808 622.423 129.664 622.423 128.368C622.423 127.056 622.655 125.896 623.119 124.888C623.599 123.864 624.271 123 625.135 122.296C626.015 121.592 627.055 121.064 628.255 120.712C629.471 120.344 630.815 120.16 632.287 120.16C634.031 120.16 635.535 120.408 636.799 120.904C638.063 121.384 639.055 122.064 639.775 122.944C640.511 123.824 640.927 124.872 641.023 126.088H637.951C637.743 125.448 637.399 124.896 636.919 124.432C636.455 123.952 635.839 123.584 635.071 123.328C634.303 123.056 633.375 122.92 632.287 122.92C630.895 122.92 629.703 123.144 628.711 123.592C627.735 124.04 626.991 124.672 626.479 125.488C625.967 126.304 625.711 127.264 625.711 128.368C625.711 129.44 625.935 130.368 626.383 131.152C626.831 131.92 627.519 132.512 628.447 132.928C629.391 133.344 630.591 133.552 632.047 133.552C633.167 133.552 634.151 133.408 634.999 133.12C635.863 132.816 636.583 132.416 637.159 131.92C637.735 131.408 638.143 130.84 638.383 130.216L639.631 129.76C639.423 131.824 638.639 133.432 637.279 134.584C635.935 135.736 634.151 136.312 631.927 136.312ZM638.815 136C638.815 135.504 638.847 134.936 638.911 134.296C638.975 133.64 639.055 132.984 639.151 132.328C639.247 131.656 639.335 131.04 639.415 130.48H632.311V128.44H641.575V136H638.815ZM645.393 120.472H648.585V136H645.393V120.472ZM651.35 120.472H667.718V123.136H651.35V120.472ZM657.95 122.8H661.142V136H657.95V122.8ZM671.478 132.616V129.952H681.75V132.616H671.478ZM667.614 136L674.91 120.472H678.366L685.734 136H682.254L675.87 122.008H677.406L671.07 136H667.614ZM691.184 120.472V133.336H701.504V136H687.992V120.472H691.184ZM603.004 149.472C604.748 149.472 606.204 149.68 607.372 150.096C608.54 150.512 609.468 151.08 610.156 151.8C610.86 152.504 611.356 153.32 611.644 154.248C611.948 155.176 612.1 156.152 612.1 157.176C612.1 158.2 611.932 159.184 611.596 160.128C611.276 161.072 610.756 161.912 610.036 162.648C609.332 163.368 608.396 163.944 607.228 164.376C606.076 164.792 604.668 165 603.004 165H594.124V149.472H603.004ZM597.316 162.264H602.932C604.084 162.264 605.036 162.128 605.788 161.856C606.556 161.568 607.164 161.184 607.612 160.704C608.06 160.224 608.38 159.68 608.572 159.072C608.764 158.464 608.86 157.832 608.86 157.176C608.86 156.52 608.764 155.896 608.572 155.304C608.38 154.712 608.06 154.184 607.612 153.72C607.164 153.256 606.556 152.888 605.788 152.616C605.036 152.344 604.084 152.208 602.932 152.208H597.316V162.264ZM618.41 158.52V162.336H630.386V165H615.218V149.472H630.362V152.136H618.41V156H628.202V158.52H618.41ZM632.631 159.768H635.871C635.935 160.312 636.183 160.808 636.615 161.256C637.063 161.688 637.647 162.032 638.367 162.288C639.087 162.528 639.895 162.648 640.791 162.648C641.607 162.648 642.279 162.56 642.807 162.384C643.335 162.208 643.727 161.96 643.983 161.64C644.239 161.32 644.367 160.936 644.367 160.488C644.367 160.056 644.207 159.728 643.887 159.504C643.567 159.264 643.063 159.072 642.375 158.928C641.687 158.768 640.783 158.608 639.663 158.448C638.783 158.32 637.951 158.144 637.167 157.92C636.383 157.68 635.687 157.376 635.079 157.008C634.487 156.64 634.015 156.192 633.663 155.664C633.327 155.12 633.159 154.48 633.159 153.744C633.159 152.832 633.415 152.032 633.927 151.344C634.455 150.656 635.231 150.12 636.255 149.736C637.279 149.352 638.535 149.16 640.023 149.16C642.263 149.16 643.983 149.64 645.183 150.6C646.399 151.544 646.991 152.848 646.959 154.512H643.839C643.775 153.568 643.375 152.888 642.639 152.472C641.919 152.056 641.007 151.848 639.903 151.848C638.879 151.848 638.031 152 637.359 152.304C636.703 152.608 636.375 153.128 636.375 153.864C636.375 154.152 636.455 154.408 636.615 154.632C636.775 154.84 637.047 155.024 637.431 155.184C637.815 155.344 638.335 155.496 638.991 155.64C639.647 155.784 640.463 155.928 641.439 156.072C642.351 156.2 643.175 156.376 643.911 156.6C644.663 156.808 645.303 157.088 645.831 157.44C646.375 157.776 646.791 158.208 647.079 158.736C647.367 159.264 647.511 159.912 647.511 160.68C647.511 161.624 647.263 162.448 646.767 163.152C646.287 163.84 645.535 164.376 644.511 164.76C643.503 165.144 642.191 165.336 640.575 165.336C639.423 165.336 638.407 165.216 637.527 164.976C636.647 164.72 635.887 164.384 635.247 163.968C634.607 163.552 634.087 163.096 633.687 162.6C633.287 162.104 632.999 161.608 632.823 161.112C632.663 160.616 632.599 160.168 632.631 159.768ZM650.783 149.472H653.975V165H650.783V149.472ZM667.037 165.312C665.597 165.312 664.293 165.144 663.125 164.808C661.973 164.472 660.973 163.968 660.125 163.296C659.293 162.624 658.653 161.792 658.205 160.8C657.757 159.808 657.533 158.664 657.533 157.368C657.533 156.056 657.765 154.896 658.229 153.888C658.709 152.864 659.381 152 660.245 151.296C661.125 150.592 662.165 150.064 663.365 149.712C664.581 149.344 665.925 149.16 667.397 149.16C669.141 149.16 670.645 149.408 671.909 149.904C673.173 150.384 674.165 151.064 674.885 151.944C675.621 152.824 676.037 153.872 676.133 155.088H673.061C672.853 154.448 672.509 153.896 672.029 153.432C671.565 152.952 670.949 152.584 670.181 152.328C669.413 152.056 668.485 151.92 667.397 151.92C666.005 151.92 664.813 152.144 663.821 152.592C662.845 153.04 662.101 153.672 661.589 154.488C661.077 155.304 660.821 156.264 660.821 157.368C660.821 158.44 661.045 159.368 661.493 160.152C661.941 160.92 662.629 161.512 663.557 161.928C664.501 162.344 665.701 162.552 667.157 162.552C668.277 162.552 669.261 162.408 670.109 162.12C670.973 161.816 671.693 161.416 672.269 160.92C672.845 160.408 673.253 159.84 673.493 159.216L674.741 158.76C674.533 160.824 673.749 162.432 672.389 163.584C671.045 164.736 669.261 165.312 667.037 165.312ZM673.925 165C673.925 164.504 673.957 163.936 674.021 163.296C674.085 162.64 674.165 161.984 674.261 161.328C674.357 160.656 674.445 160.04 674.525 159.48H667.421V157.44H676.685V165H673.925ZM695.79 161.832L694.782 162.24V149.472H697.974V165H694.782L682.23 152.736L683.238 152.328V165H680.046V149.472H683.238L695.79 161.832Z" fill="#262628"/>
<circle cx="324.276" cy="236" r="98" fill="#C6C2F2"/>
<path d="M273.46 265.768H276.7C276.764 266.312 277.012 266.808 277.444 267.256C277.892 267.688 278.476 268.032 279.196 268.288C279.916 268.528 280.724 268.648 281.62 268.648C282.436 268.648 283.108 268.56 283.636 268.384C284.164 268.208 284.556 267.96 284.812 267.64C285.068 267.32 285.196 266.936 285.196 266.488C285.196 266.056 285.036 265.728 284.716 265.504C284.396 265.264 283.892 265.072 283.204 264.928C282.516 264.768 281.612 264.608 280.492 264.448C279.612 264.32 278.78 264.144 277.996 263.92C277.212 263.68 276.516 263.376 275.908 263.008C275.316 262.64 274.844 262.192 274.492 261.664C274.156 261.12 273.988 260.48 273.988 259.744C273.988 258.832 274.244 258.032 274.756 257.344C275.284 256.656 276.06 256.12 277.084 255.736C278.108 255.352 279.364 255.16 280.852 255.16C283.092 255.16 284.812 255.64 286.012 256.6C287.228 257.544 287.82 258.848 287.788 260.512H284.668C284.604 259.568 284.204 258.888 283.468 258.472C282.748 258.056 281.836 257.848 280.732 257.848C279.708 257.848 278.86 258 278.188 258.304C277.532 258.608 277.204 259.128 277.204 259.864C277.204 260.152 277.284 260.408 277.444 260.632C277.604 260.84 277.876 261.024 278.26 261.184C278.644 261.344 279.164 261.496 279.82 261.64C280.476 261.784 281.292 261.928 282.268 262.072C283.18 262.2 284.004 262.376 284.74 262.6C285.492 262.808 286.132 263.088 286.66 263.44C287.204 263.776 287.62 264.208 287.908 264.736C288.196 265.264 288.34 265.912 288.34 266.68C288.34 267.624 288.092 268.448 287.596 269.152C287.116 269.84 286.364 270.376 285.34 270.76C284.332 271.144 283.02 271.336 281.404 271.336C280.252 271.336 279.236 271.216 278.356 270.976C277.476 270.72 276.716 270.384 276.076 269.968C275.436 269.552 274.916 269.096 274.516 268.6C274.116 268.104 273.828 267.608 273.652 267.112C273.492 266.616 273.428 266.168 273.46 265.768ZM300.396 271.312C298.332 271.312 296.564 270.992 295.092 270.352C293.636 269.696 292.516 268.768 291.732 267.568C290.964 266.368 290.58 264.928 290.58 263.248C290.58 261.552 290.964 260.104 291.732 258.904C292.516 257.704 293.636 256.784 295.092 256.144C296.564 255.488 298.332 255.16 300.396 255.16C302.476 255.16 304.244 255.488 305.7 256.144C307.156 256.784 308.268 257.704 309.036 258.904C309.82 260.104 310.212 261.552 310.212 263.248C310.212 264.928 309.82 266.368 309.036 267.568C308.268 268.768 307.156 269.696 305.7 270.352C304.244 270.992 302.476 271.312 300.396 271.312ZM300.396 268.552C301.676 268.552 302.796 268.36 303.756 267.976C304.732 267.592 305.492 267.008 306.036 266.224C306.596 265.44 306.876 264.448 306.876 263.248C306.876 262.048 306.596 261.056 306.036 260.272C305.492 259.488 304.732 258.904 303.756 258.52C302.796 258.12 301.676 257.92 300.396 257.92C299.132 257.92 298.004 258.12 297.012 258.52C296.02 258.904 295.244 259.488 294.684 260.272C294.124 261.056 293.844 262.048 293.844 263.248C293.844 264.448 294.124 265.44 294.684 266.224C295.244 267.008 296.02 267.592 297.012 267.976C298.004 268.36 299.132 268.552 300.396 268.552ZM331.447 265.408C331.303 266.656 330.863 267.72 330.127 268.6C329.391 269.48 328.391 270.152 327.127 270.616C325.863 271.08 324.359 271.312 322.615 271.312C321.159 271.312 319.823 271.144 318.607 270.808C317.407 270.472 316.367 269.968 315.487 269.296C314.623 268.624 313.951 267.792 313.471 266.8C312.991 265.792 312.751 264.616 312.751 263.272C312.751 261.928 312.991 260.752 313.471 259.744C313.951 258.736 314.623 257.896 315.487 257.224C316.367 256.536 317.407 256.024 318.607 255.688C319.823 255.336 321.159 255.16 322.615 255.16C324.359 255.16 325.863 255.4 327.127 255.88C328.407 256.36 329.415 257.048 330.151 257.944C330.887 258.824 331.319 259.896 331.447 261.16H328.279C328.071 260.488 327.719 259.912 327.223 259.432C326.743 258.936 326.119 258.56 325.351 258.304C324.583 258.048 323.671 257.92 322.615 257.92C321.303 257.92 320.151 258.128 319.159 258.544C318.167 258.944 317.399 259.544 316.855 260.344C316.311 261.128 316.039 262.104 316.039 263.272C316.039 264.424 316.311 265.392 316.855 266.176C317.399 266.96 318.167 267.56 319.159 267.976C320.151 268.376 321.303 268.576 322.615 268.576C323.671 268.576 324.575 268.448 325.327 268.192C326.095 267.936 326.719 267.568 327.199 267.088C327.695 266.608 328.055 266.048 328.279 265.408H331.447ZM335.018 255.472H338.21V271H335.018V255.472ZM344.767 267.616V264.952H355.039V267.616H344.767ZM340.903 271L348.199 255.472H351.655L359.023 271H355.543L349.159 257.008H350.695L344.359 271H340.903ZM364.473 255.472V268.336H374.793V271H361.281V255.472H364.473ZM291.884 298.416H290.372L299.3 284.472H302.492V300H299.3V288.72L300.068 288.936L292.94 300H289.364L282.236 288.984L283.004 288.768V300H279.812V284.472H283.004L291.884 298.416ZM309.371 293.52V297.336H321.347V300H306.179V284.472H321.323V287.136H309.371V291H319.163V293.52H309.371ZM333.504 284.472C335.248 284.472 336.704 284.68 337.872 285.096C339.04 285.512 339.968 286.08 340.656 286.8C341.36 287.504 341.856 288.32 342.144 289.248C342.448 290.176 342.6 291.152 342.6 292.176C342.6 293.2 342.432 294.184 342.096 295.128C341.776 296.072 341.256 296.912 340.536 297.648C339.832 298.368 338.896 298.944 337.728 299.376C336.576 299.792 335.168 300 333.504 300H324.624V284.472H333.504ZM327.816 297.264H333.432C334.584 297.264 335.536 297.128 336.288 296.856C337.056 296.568 337.664 296.184 338.112 295.704C338.56 295.224 338.88 294.68 339.072 294.072C339.264 293.464 339.36 292.832 339.36 292.176C339.36 291.52 339.264 290.896 339.072 290.304C338.88 289.712 338.56 289.184 338.112 288.72C337.664 288.256 337.056 287.888 336.288 287.616C335.536 287.344 334.584 287.208 333.432 287.208H327.816V297.264ZM346.174 284.472H349.366V300H346.174V284.472ZM355.923 296.616V293.952H366.195V296.616H355.923ZM352.059 300L359.355 284.472H362.811L370.179 300H366.699L360.315 286.008H361.851L355.515 300H352.059Z" fill="#262628"/>
<g clip-path="url(#clip2_75_362)">
<path d="M694.377 16.5019L687.818 24.4827L690.676 34.4126C690.8 34.8468 690.668 35.3143 690.334 35.6189C690.145 35.7916 689.909 35.8942 689.665 35.9212C689.477 35.942 689.283 35.9181 689.101 35.8463L679.481 32.0739L670.921 37.8582C670.547 38.1122 670.061 38.1315 669.668 37.9061C669.275 37.682 669.044 37.2548 669.07 36.8038L669.686 26.4895L661.539 20.1382C661.183 19.8598 661.014 19.403 661.106 18.9615C661.198 18.52 661.533 18.1663 661.971 18.0521L671.969 15.4515L675.493 5.73977C675.802 4.88959 677.124 4.74321 677.611 5.5053L683.174 14.2107L693.499 14.5609C693.951 14.5765 694.355 14.8472 694.542 15.2591C694.728 15.6709 694.663 16.1512 694.377 16.5019Z" fill="#D86072"/>
</g>
<g clip-path="url(#clip3_75_362)">
<path d="M358.248 165.001H353.588C352.213 165.001 352.15 167.198 353.588 167.198H358.248C359.258 167.198 360.079 168.02 360.079 169.03V193.104C360.079 194.114 359.258 194.935 358.248 194.935H354.914C354.307 194.935 353.816 195.427 353.816 196.033V198.993L350.079 195.257C349.873 195.051 349.594 194.935 349.302 194.935H327.918V186.802C327.92 184.56 326.073 182.741 323.832 182.774V169.03C323.832 168.02 324.653 167.198 325.663 167.198H347.335C348.71 167.198 348.772 165.001 347.335 165.001H325.663C323.442 165.001 321.635 166.808 321.635 169.03V182.774H291.305C289.084 182.774 287.276 184.581 287.276 186.802V210.877C287.276 213.098 289.084 214.905 291.305 214.905H293.54V219.418C293.54 220.365 294.718 220.892 295.415 220.195L300.706 214.905H309.345V230.361C309.345 232.582 311.152 234.389 313.373 234.389H336.557L341.848 239.679C342.545 240.376 343.723 239.849 343.723 238.903V234.389H345.958C348.179 234.389 349.987 232.582 349.987 230.361V206.287C349.987 204.065 348.179 202.258 345.958 202.258H327.918V197.132H348.847L354.137 202.423C354.834 203.119 356.013 202.592 356.013 201.646V197.132H358.248C360.469 197.132 362.276 195.325 362.276 193.104V169.03C362.276 166.808 360.469 165.001 358.248 165.001ZM309.345 206.287V206.929C308.592 207.328 307.973 207.612 307.596 207.777C306.877 207.463 305.274 206.711 303.519 205.546C302.373 204.785 301.106 206.581 302.303 207.376C304.865 209.077 307.104 209.956 307.198 209.992C307.463 210.092 307.729 210.092 307.994 209.992C308.027 209.979 308.542 209.778 309.345 209.391V212.708H300.25C299.959 212.708 299.68 212.824 299.474 213.03L295.737 216.766V213.806C295.737 213.2 295.245 212.708 294.639 212.708H291.305C290.295 212.708 289.474 211.886 289.474 210.877V186.802C289.474 185.793 290.295 184.971 291.305 184.971H323.89C324.9 184.971 325.721 185.793 325.721 186.802V202.258H318.35C319.759 200.233 320.471 198.089 320.472 195.86C320.472 191.767 317.186 188.436 313.147 188.436C310.976 188.436 308.97 189.391 307.598 191.011C306.226 189.391 304.219 188.435 302.048 188.435C298.01 188.435 294.723 191.765 294.723 195.858C294.722 198.489 295.719 201.012 297.685 203.356C298.569 204.409 300.293 203.045 299.369 201.943C297.744 200.006 296.92 197.959 296.92 195.858C296.92 192.976 299.221 190.632 302.048 190.632C303.983 190.632 305.733 191.725 306.615 193.484C306.805 193.862 307.197 194.054 307.597 194.091C308.013 194.091 308.393 193.856 308.579 193.485C311.082 188.616 318.22 190.406 318.274 195.86C318.274 198.077 317.359 200.227 315.553 202.258H313.373C311.152 202.258 309.345 204.065 309.345 206.287ZM345.958 204.456C346.968 204.456 347.789 205.277 347.789 206.287V230.361C347.789 231.371 346.968 232.192 345.958 232.192H342.624C342.018 232.192 341.526 232.684 341.526 233.291V236.25L337.789 232.514C337.583 232.308 337.304 232.192 337.012 232.192H313.373C312.363 232.192 311.542 231.371 311.542 230.361V206.287C311.542 205.277 312.363 204.456 313.373 204.456H345.958Z" fill="#262628"/>
<path d="M342.178 169.939C341.772 169.939 341.399 170.163 341.208 170.521L338.33 175.925C338.099 176.361 337.852 176.736 337.37 176.944C336.896 176.178 336.047 175.667 335.082 175.667H333.234C331.75 175.667 330.543 176.874 330.543 178.358V189.445C330.543 190.928 331.75 192.136 333.234 192.136H335.082C336.191 192.136 337.145 191.461 337.556 190.502C338.049 190.675 338.602 190.782 339.283 190.782H348.599C350.133 190.782 351.479 189.746 351.87 188.262L353.868 180.701C354.38 178.809 352.776 176.901 350.869 176.901H346.621C346.363 176.901 346.153 176.691 346.153 176.434V173.914C346.153 171.722 344.37 169.939 342.178 169.939ZM335.575 189.445C335.575 189.717 335.354 189.938 335.082 189.938H333.234C332.962 189.938 332.74 189.717 332.74 189.445V178.358C332.74 178.086 332.962 177.864 333.234 177.864H335.082C335.354 177.864 335.575 178.085 335.575 178.358V189.445ZM346.621 179.098H350.869C351.426 179.098 351.85 179.618 351.738 180.163L349.746 187.701C349.609 188.221 349.137 188.584 348.599 188.584H339.283C338.692 188.584 338.3 188.478 337.773 188.197V179.132C338.884 178.812 339.815 178.012 340.292 176.916L342.781 172.241C343.465 172.489 343.956 173.145 343.956 173.914V176.434C343.956 177.903 345.151 179.098 346.621 179.098Z" fill="#262628"/>
<path d="M320.193 222.521C322.34 222.521 324.087 220.774 324.087 218.627C323.873 213.46 316.511 213.462 316.298 218.627C316.298 220.774 318.045 222.521 320.193 222.521ZM320.193 216.93C321.129 216.93 321.89 217.691 321.89 218.627C321.796 220.878 318.588 220.878 318.496 218.627C318.496 217.691 319.257 216.93 320.193 216.93Z" fill="#262628"/>
<path d="M329.666 222.521C331.813 222.521 333.56 220.774 333.56 218.627C333.346 213.461 325.985 213.462 325.771 218.627C325.771 220.774 327.518 222.521 329.666 222.521ZM329.666 216.93C330.602 216.93 331.363 217.691 331.363 218.627C331.27 220.878 328.062 220.878 327.969 218.627C327.969 217.691 328.73 216.93 329.666 216.93Z" fill="#262628"/>
<path d="M339.139 222.521C341.286 222.521 343.033 220.774 343.033 218.627C342.819 213.46 335.457 213.462 335.244 218.627C335.244 220.774 336.991 222.521 339.139 222.521ZM339.139 216.93C340.074 216.93 340.836 217.691 340.836 218.627C340.742 220.878 337.534 220.878 337.441 218.627C337.441 217.691 338.203 216.93 339.139 216.93Z" fill="#262628"/>
</g>
<path d="M646.56 200.118L641.729 198.516L640.127 193.685C640.053 193.463 639.846 193.313 639.612 193.313C639.379 193.313 639.171 193.463 639.097 193.685L637.496 198.516L632.665 200.118C632.443 200.191 632.293 200.399 632.293 200.632C632.293 200.866 632.443 201.073 632.665 201.147L637.496 202.749L639.097 207.58C639.171 207.802 639.379 207.951 639.612 207.951C639.846 207.951 640.053 207.802 640.127 207.58L641.729 202.749L646.56 201.147C646.781 201.073 646.931 200.866 646.931 200.632C646.932 200.399 646.781 200.191 646.56 200.118Z" fill="#262628"/>
<path d="M661.713 193.838L658.835 192.883L657.881 190.006C657.837 189.874 657.713 189.784 657.574 189.784C657.435 189.784 657.312 189.874 657.268 190.006L656.313 192.883L653.436 193.838C653.303 193.881 653.214 194.005 653.214 194.144C653.214 194.283 653.303 194.407 653.436 194.451L656.313 195.405L657.268 198.283C657.312 198.415 657.435 198.504 657.574 198.504C657.713 198.504 657.837 198.415 657.881 198.283L658.835 195.405L661.713 194.451C661.845 194.407 661.934 194.283 661.934 194.144C661.934 194.005 661.845 193.881 661.713 193.838Z" fill="#262628"/>
<path d="M623.54 234.955L610.292 221.707L616.682 215.316L630.144 228.777L632.774 226.317L618.459 212.001C618.371 211.78 618.238 211.573 618.059 211.394C617.88 211.215 617.673 211.082 617.452 210.994L613.279 206.822C611.829 205.372 609.901 204.573 607.85 204.573C605.799 204.573 603.871 205.372 602.422 206.822L601.798 207.445C598.804 210.439 598.804 215.31 601.798 218.303L620.91 237.415L623.54 234.955ZM604.343 215.758C602.754 214.168 602.754 211.581 604.343 209.991L604.967 209.368C605.737 208.597 606.761 208.173 607.85 208.173C608.94 208.173 609.964 208.597 610.734 209.368L614.137 212.771L607.747 219.161L604.343 215.758Z" fill="#262628"/>
<path d="M661.262 263.386C660.547 261.238 656.856 250.398 654.385 247.927L654.369 247.911C654.281 247.69 654.148 247.482 653.969 247.303C653.79 247.124 653.583 246.992 653.361 246.904L644.606 238.148L642.257 240.891L650.046 248.68L643.656 255.07L636.361 247.775L634.012 250.517L642.903 259.409C645.374 261.88 656.214 265.571 658.362 266.285C658.548 266.347 658.74 266.377 658.93 266.377C659.4 266.377 659.86 266.194 660.202 265.851L660.826 265.228C661.309 264.746 661.477 264.033 661.262 263.386ZM646.322 257.496L652.472 251.346C653.712 253.403 655.555 258.015 656.975 261.999C652.991 260.579 648.379 258.736 646.322 257.496Z" fill="#262628"/>
<path d="M660.817 206.409L660.465 206.056C659.508 205.1 658.227 204.573 656.858 204.573C655.48 204.573 654.186 205.102 653.21 206.064L613.78 242.446C613.763 242.462 613.745 242.479 613.728 242.496C612.912 243.312 612.475 244.345 612.459 245.487C611.977 245.387 611.474 245.328 610.953 245.328C608.893 245.328 607.035 246.212 605.432 247.956C603.402 250.165 602.563 252.603 601.824 254.755C600.727 257.948 599.86 260.47 595.58 262.297C595.03 262.531 594.633 263.024 594.52 263.611C594.406 264.198 594.591 264.802 595.014 265.225C596.424 266.635 600.19 267.135 602.986 267.135C606.645 267.135 613.571 266.347 618.851 261.067C620.357 259.561 621.119 257.801 621.114 255.837C621.113 255.341 621.06 254.856 620.969 254.386C621.089 254.396 621.209 254.402 621.33 254.402C622.503 254.402 623.563 253.962 624.396 253.129C624.413 253.112 624.43 253.094 624.446 253.077L660.81 213.665C662.8 211.645 662.807 208.399 660.817 206.409ZM616.305 258.521C611.943 262.884 606.088 263.535 602.987 263.535C602.128 263.535 601.362 263.488 600.693 263.414C603.429 261.162 604.371 258.421 605.229 255.925C605.914 253.931 606.561 252.047 608.083 250.392C608.988 249.407 609.927 248.928 610.953 248.928C612.653 248.928 614.363 250.259 615.035 250.916C615.103 250.989 615.155 251.041 615.183 251.069L615.239 251.125C615.426 251.319 617.509 253.538 617.514 255.845C617.517 256.83 617.121 257.706 616.305 258.521ZM658.237 211.148C658.22 211.165 658.203 211.182 658.187 211.2L621.83 250.603C621.679 250.748 621.541 250.802 621.33 250.802C620.437 250.802 619.047 249.83 618.351 249.146L617.799 248.594C617.796 248.591 617.793 248.587 617.79 248.585C617.75 248.542 617.687 248.476 617.603 248.392C617.043 247.79 616.058 246.462 616.057 245.554C616.057 245.348 616.111 245.212 616.254 245.062L655.675 208.688C655.693 208.672 655.71 208.655 655.727 208.638C656.027 208.338 656.428 208.173 656.858 208.173C657.266 208.173 657.643 208.326 657.92 208.603L658.272 208.955C658.857 209.539 658.841 210.544 658.237 211.148Z" fill="#262628"/>
<defs>
<clipPath id="clip0_75_362">
<rect y="296.917" width="287" height="53" rx="8" transform="rotate(-37.8168 0 296.917)" fill="white"/>
</clipPath>
<clipPath id="clip1_75_362">
<rect x="660.765" y="16.9999" width="113" height="53" rx="26.5" transform="rotate(13.6289 660.765 16.9999)" fill="white"/>
</clipPath>
<clipPath id="clip2_75_362">
<rect width="38" height="38" fill="white" transform="translate(657.276 4.18231) rotate(-6.31885)"/>
</clipPath>
<clipPath id="clip3_75_362">
<rect width="75" height="75" fill="white" transform="translate(287.276 165)"/>
</clipPath>
</defs>
</svg>
