<svg width="45" height="45" viewBox="0 0 45 45" fill="none" xmlns="http://www.w3.org/2000/svg">
<circle cx="22.5" cy="22.5" r="22.5" fill="#C6C2F2"/>
<g clip-path="url(#clip0_27_252)">
<mask id="mask0_27_252" style="mask-type:luminance" maskUnits="userSpaceOnUse" x="7" y="7" width="32" height="32">
<path d="M7 7H39V39H7V7Z" fill="white"/>
</mask>
<g mask="url(#mask0_27_252)">
<path d="M24.3046 13.392L22.9998 7.18945L21.695 13.392C21.2658 15.4324 20.2523 17.3038 18.7781 18.7781C17.3038 20.2523 15.4324 21.2658 13.392 21.695L7.18945 22.9998L13.392 24.3046C15.4323 24.7338 17.3037 25.7474 18.7781 27.2217C20.2523 28.696 21.2658 30.5673 21.695 32.6077L22.9998 38.8102L24.3046 32.6077C24.7338 30.5673 25.7473 28.696 27.2216 27.2217C28.696 25.7474 30.5673 24.7338 32.6077 24.3046L38.8102 22.9998L32.6077 21.695C30.5673 21.2658 28.6958 20.2523 27.2216 18.7781C25.7473 17.3038 24.7338 15.4324 24.3046 13.392Z" fill="#FFF6EE"/>
</g>
</g>
<defs>
<clipPath id="clip0_27_252">
<rect width="32" height="32" fill="white" transform="translate(7 7)"/>
</clipPath>
</defs>
</svg>
