<svg width="98" height="98" viewBox="0 0 98 98" fill="none" xmlns="http://www.w3.org/2000/svg">
<path d="M92.3773 38.9672C92.0159 37.8586 91.0573 37.0501 89.9028 36.8817L63.5377 33.0536L51.7471 9.15994C50.715 7.06825 47.285 7.06825 46.253 9.15994L34.4623 33.0536L8.09727 36.8817C6.94271 37.0501 5.98415 37.8586 5.62277 38.9672C5.2614 40.0759 5.56152 41.2917 6.39759 42.1063L25.4739 60.7018L20.969 86.9658C20.773 88.1143 21.2446 89.2749 22.1878 89.9609C23.1341 90.6531 24.3836 90.7388 25.4126 90.1937L49 77.7967L72.5843 90.1937C73.0315 90.4295 73.5215 90.5459 74.0084 90.5459C74.6423 90.5459 75.2763 90.3499 75.8091 89.9609C76.7524 89.2749 77.224 88.1143 77.028 86.9658L72.5231 60.7018L91.5994 42.1063C92.4355 41.2917 92.7356 40.0759 92.3773 38.9672ZM67.0933 57.4433C66.3736 58.1446 66.0428 59.1614 66.2113 60.1536L69.9383 81.8882L50.421 71.6288C49.98 71.393 49.49 71.2736 49 71.2736C48.51 71.2736 48.02 71.3899 47.576 71.6257L28.0586 81.8851L31.7857 60.1506C31.9541 59.1583 31.6265 58.1446 30.9037 57.4403L15.1165 42.0512L36.9338 38.8815C37.9321 38.7376 38.7927 38.1097 39.2398 37.2063L49 17.4348L58.7571 37.2063C59.2043 38.1097 60.0648 38.7376 61.0632 38.8815L82.8805 42.0512L67.0933 57.4433Z" fill="#D6DC82"/>
</svg>
