<svg width="98" height="98" viewBox="0 0 98 98" fill="none" xmlns="http://www.w3.org/2000/svg">
<g clip-path="url(#clip0_11_42)">
<mask id="mask0_11_42" style="mask-type:luminance" maskUnits="userSpaceOnUse" x="0" y="0" width="98" height="98">
<path d="M0 0H98V98H0V0Z" fill="white"/>
</mask>
<g mask="url(#mask0_11_42)">
<path d="M52.9961 19.5763L49.0001 0.580948L45.0042 19.5763C43.6897 25.8248 40.5859 31.556 36.0709 36.071C31.5559 40.586 25.8247 43.6899 19.5762 45.0043L0.580811 49.0002L19.5762 52.9962C25.8246 54.3106 31.5558 57.4148 36.0709 61.9297C40.5859 66.4447 43.6897 72.1756 45.0042 78.4243L49.0001 97.4196L52.9961 78.4243C54.3105 72.1756 57.4142 66.4447 61.9292 61.9297C66.4445 57.4148 72.1755 54.3106 78.4242 52.9962L97.4195 49.0002L78.4242 45.0043C72.1755 43.6899 66.4441 40.586 61.9292 36.071C57.4142 31.556 54.3105 25.8248 52.9961 19.5763Z" fill="#D6DC82"/>
</g>
</g>
<defs>
<clipPath id="clip0_11_42">
<rect width="98" height="98" fill="white"/>
</clipPath>
</defs>
</svg>
