<svg width="163" height="155" viewBox="0 0 163 155" fill="none" xmlns="http://www.w3.org/2000/svg">
<g clip-path="url(#clip0_27_260)">
<path d="M96.6759 53.3964L94.4122 25.0261L75.5791 3.68799L139.978 5.68708L96.6759 53.3964Z" fill="#FBE9D8"/>
<path d="M122.988 78.8232L65.0565 86.9618C60.1343 87.6533 56.7046 92.2041 57.3961 97.1263L63.0305 137.232C63.7221 142.155 68.2729 145.584 73.1951 144.893L131.126 136.754C136.048 136.063 139.478 131.512 138.787 126.59L133.152 86.4836C132.461 81.5613 127.91 78.1317 122.988 78.8232Z" fill="#FFB632"/>
<path d="M95.9498 55.5265C96.3654 55.6682 96.8133 55.6852 97.2384 55.5755C97.6635 55.4658 98.0472 55.2341 98.3422 54.909L141.644 7.19906C141.933 6.8808 142.125 6.48648 142.197 6.06273C142.268 5.63898 142.217 5.20354 142.049 4.80792C141.882 4.41229 141.604 4.07304 141.249 3.83028C140.894 3.58752 140.478 3.45141 140.048 3.43806L75.6493 1.43865C75.2105 1.42498 74.7772 1.54 74.4029 1.76953C74.0287 1.99907 73.7297 2.3331 73.5429 2.73045C73.3562 3.12781 73.2898 3.57112 73.3518 4.00576C73.4139 4.44041 73.6018 4.84739 73.8924 5.17655L92.2295 25.9522L94.4345 53.575C94.4692 54.0126 94.6311 54.4306 94.9003 54.7773C95.1696 55.1241 95.5344 55.3845 95.9498 55.5265ZM80.7075 6.09786L135.036 7.78467L98.5054 48.0328L96.7841 26.4625L116.002 18.3062C116.275 18.1916 116.523 18.0241 116.731 17.8134C116.939 17.6028 117.104 17.3531 117.215 17.0787C117.327 16.8044 117.383 16.5107 117.38 16.2145C117.378 15.9184 117.317 15.6256 117.202 15.3529C117.086 15.0803 116.918 14.8332 116.706 14.6258C116.495 14.4184 116.245 14.2547 115.97 14.1442C115.695 14.0338 115.401 13.9786 115.105 13.982C114.809 13.9853 114.516 14.0471 114.244 14.1638L95.0272 22.3205L80.7075 6.09786Z" fill="#262628"/>
<path d="M55.1681 97.4389L60.8026 137.545C61.2208 140.498 62.7934 143.165 65.1754 144.96C67.5574 146.755 70.5541 147.532 73.5083 147.121L131.439 138.982C134.393 138.564 137.059 136.991 138.854 134.609C140.65 132.227 141.426 129.23 141.015 126.276L135.38 86.1701C134.962 83.2169 133.39 80.5502 131.008 78.7551C128.626 76.96 125.629 76.183 122.675 76.5946L64.7436 84.7332C61.7904 85.1515 59.1238 86.7241 57.3286 89.1061C55.5335 91.488 54.7565 94.4848 55.1681 97.4389ZM130.813 134.526L72.8822 142.664C71.1098 142.911 69.3117 142.445 67.8826 141.368C66.4534 140.291 65.5098 138.691 65.2588 136.919L60.1998 100.909L92.4881 115.902C94.4555 116.813 96.6439 117.137 98.7909 116.836C100.938 116.534 102.952 115.62 104.592 114.202L131.5 90.892L136.559 126.902C136.806 128.675 136.339 130.473 135.262 131.902C134.185 133.331 132.585 134.275 130.813 134.526ZM130.662 85.6631L101.646 110.8C100.662 111.651 99.4534 112.2 98.1651 112.381C96.8769 112.562 95.5638 112.367 94.3833 111.82L59.564 95.6515C59.6182 94.0639 60.2298 92.5461 61.2914 91.3645C62.3531 90.1828 63.7969 89.4128 65.3697 89.1895L123.301 81.0509C124.874 80.8321 126.474 81.1744 127.821 82.0178C129.167 82.8612 130.173 84.1518 130.662 85.6631Z" fill="#262628"/>
<path d="M63.7488 41.8393C64.0141 41.8023 64.2708 41.7181 64.5065 41.5908C66.3655 40.5847 68.2797 39.5839 70.1954 38.6195C70.4609 38.4876 70.6977 38.3045 70.8923 38.0807C71.0868 37.8569 71.2352 37.5969 71.3289 37.3156C71.4226 37.0343 71.4598 36.7373 71.4383 36.4415C71.4168 36.1458 71.3371 35.8572 71.2037 35.5924C71.0704 35.3276 70.886 35.0918 70.6611 34.8985C70.4363 34.7052 70.1755 34.5582 69.8937 34.466C69.6119 34.3738 69.3146 34.3383 69.019 34.3613C68.7234 34.3844 68.4353 34.4657 68.1712 34.6005C66.215 35.5854 64.261 36.6063 62.3632 37.6335C61.8986 37.8843 61.537 38.2905 61.3417 38.7811C61.1463 39.2716 61.1297 39.8152 61.2948 40.3167C61.4598 40.8183 61.796 41.2458 62.2445 41.5245C62.6929 41.8032 63.2251 41.9153 63.7479 41.8411L63.7488 41.8393Z" fill="#262628"/>
<path d="M26.7127 114.689C26.5434 114.932 26.4233 115.205 26.3595 115.493C26.2956 115.782 26.2892 116.08 26.3407 116.371C26.3921 116.662 26.5003 116.94 26.6592 117.189C26.8181 117.438 27.0244 117.654 27.2666 117.823C29.171 119.154 31.2162 120.272 33.3651 121.157C33.9171 121.383 34.5366 121.382 35.0873 121.152C35.638 120.922 36.0749 120.483 36.3017 119.931C36.5286 119.379 36.527 118.759 36.2971 118.209C36.0672 117.658 35.628 117.221 35.0761 116.994C33.2331 116.236 31.4793 115.277 29.8462 114.135C29.6041 113.966 29.331 113.846 29.0425 113.782C28.754 113.718 28.4557 113.712 28.1647 113.763C27.8737 113.815 27.5958 113.923 27.3466 114.082C27.0975 114.241 26.8821 114.447 26.7127 114.689Z" fill="#262628"/>
<path d="M75.2799 33.64C75.4017 33.9092 75.5754 34.1518 75.7911 34.3539C76.0068 34.5559 76.2602 34.7134 76.5369 34.8175C76.8135 34.9215 77.1079 34.9699 77.4033 34.96C77.6987 34.9501 77.9892 34.882 78.2583 34.7597C80.8996 33.5613 82.9193 32.711 84.1481 32.2086C84.4245 32.0989 84.6764 31.9354 84.8892 31.7277C85.102 31.52 85.2715 31.2722 85.388 30.9986C85.5044 30.725 85.5655 30.431 85.5676 30.1336C85.5698 29.8363 85.513 29.5415 85.4005 29.2662C85.2879 28.9909 85.122 28.7407 84.9122 28.53C84.7024 28.3192 84.4529 28.1522 84.1781 28.0385C83.9033 27.9248 83.6088 27.8666 83.3114 27.8675C83.014 27.8683 82.7198 27.9281 82.4456 28.0433C81.1808 28.5619 79.1048 29.4343 76.3993 30.6613C76.1302 30.7834 75.8878 30.9573 75.6859 31.173C75.484 31.3888 75.3266 31.6422 75.2227 31.9188C75.1187 32.1954 75.0703 32.4897 75.0801 32.7851C75.0899 33.0804 75.1578 33.3709 75.2799 33.64Z" fill="#262628"/>
<path d="M13.9855 88.9874C13.7496 91.2928 13.7747 93.6175 14.0605 95.9173C14.1344 96.5094 14.4405 97.0479 14.9115 97.4144C15.3825 97.7808 15.9797 97.9451 16.5719 97.8712L16.607 97.8663C17.192 97.7842 17.7213 97.4752 18.0805 97.0062C18.4397 96.5372 18.6001 95.9456 18.5269 95.3594C18.2829 93.3964 18.2613 91.4121 18.4627 89.4442C18.5194 88.8526 18.3398 88.2626 17.963 87.8029C17.5862 87.3433 17.0428 87.0515 16.4515 86.9911C15.8603 86.9307 15.2692 87.1067 14.8072 87.4807C14.3453 87.8546 14.0501 88.3962 13.9861 88.9871L13.9855 88.9874Z" fill="#262628"/>
<path d="M54.4425 42.1488C52.5377 43.294 50.6652 44.4662 48.8771 45.6328C48.6296 45.7943 48.4164 46.0029 48.2495 46.2468C48.0827 46.4906 47.9655 46.765 47.9047 47.0541C47.8439 47.3433 47.8407 47.6416 47.8951 47.932C47.9496 48.2224 48.0607 48.4992 48.2222 48.7467C48.5483 49.2465 49.0596 49.5962 49.6435 49.719C49.9327 49.7798 50.231 49.7831 50.5214 49.7286C50.8118 49.6741 51.0886 49.563 51.3361 49.4015C53.0779 48.2648 54.9031 47.1222 56.7608 46.0055C57.0168 45.8547 57.2404 45.6546 57.4187 45.4169C57.5969 45.1792 57.7264 44.9085 57.7995 44.6205C57.8726 44.3325 57.8879 44.0328 57.8446 43.7389C57.8012 43.4449 57.7001 43.1624 57.547 42.9078C57.3939 42.6531 57.1919 42.4313 56.9526 42.2551C56.7133 42.0789 56.4415 41.9519 56.1529 41.8813C55.8643 41.8108 55.5645 41.7981 55.2709 41.844C54.9773 41.8899 54.6958 41.9935 54.4425 42.1488Z" fill="#262628"/>
<path d="M37.9186 58.8847C38.3307 58.8269 38.7185 58.6553 39.0385 58.3894C40.6159 57.0837 42.3002 55.7641 44.0464 54.4674C44.5255 54.1116 44.8437 53.5801 44.9309 52.9898C45.0181 52.3994 44.8672 51.7986 44.5115 51.3195C44.1557 50.8404 43.6242 50.5223 43.0339 50.4351C42.4435 50.3479 41.8427 50.4987 41.3636 50.8545C39.5541 52.1985 37.8061 53.5673 36.1698 54.9233C35.7923 55.2357 35.527 55.6629 35.4144 56.1398C35.3018 56.6167 35.348 57.1174 35.546 57.5657C35.744 58.014 36.0829 58.3854 36.5112 58.6234C36.9396 58.8615 37.4339 58.9532 37.9192 58.8846L37.9186 58.8847Z" fill="#262628"/>
<path d="M40.6929 120.985C40.6692 121.279 40.7036 121.576 40.7944 121.857C40.8851 122.138 41.0303 122.399 41.2218 122.624C41.4132 122.849 41.6471 123.034 41.9101 123.169C42.1731 123.303 42.4601 123.385 42.7546 123.409C45.07 123.594 47.3988 123.524 49.699 123.2C50.2899 123.117 50.8236 122.803 51.1828 122.326C51.5419 121.85 51.6971 121.25 51.614 120.659C51.531 120.068 51.2167 119.535 50.7401 119.175C50.2636 118.816 49.6638 118.661 49.0729 118.744C47.1001 119.022 45.1027 119.082 43.1168 118.923C42.522 118.875 41.9325 119.066 41.478 119.452C41.0234 119.839 40.741 120.39 40.6929 120.985Z" fill="#262628"/>
<path d="M29.3374 61.1105C27.711 62.7346 26.1904 64.3848 24.8191 66.0151C24.4484 66.4733 24.2722 67.0585 24.3285 67.6452C24.3848 68.2318 24.6689 68.773 25.12 69.1523C25.571 69.5316 26.1528 69.7189 26.7404 69.6738C27.328 69.6287 27.8745 69.3548 28.2623 68.9111C29.5507 67.3796 30.9814 65.8262 32.5168 64.2938C32.9391 63.8722 33.1766 63.3 33.177 62.7033C33.1775 62.1066 32.9409 61.5341 32.5192 61.1118C32.0976 60.6895 31.5255 60.452 30.9287 60.4516C30.332 60.4511 29.7595 60.6878 29.3372 61.1094L29.3374 61.1105Z" fill="#262628"/>
<path d="M22.4447 72.8323C21.9322 72.5268 21.3193 72.4373 20.7408 72.5836C20.1623 72.7299 19.6657 73.1 19.36 73.6125C18.1907 75.561 17.1752 77.5978 16.3229 79.7043C16.2079 79.9795 16.1488 80.2748 16.1489 80.5731C16.1491 80.8714 16.2085 81.1666 16.3238 81.4417C16.4391 81.7168 16.608 81.9662 16.8205 82.1754C17.0331 82.3846 17.2851 82.5495 17.562 82.6605C17.8389 82.7714 18.135 82.8262 18.4332 82.8216C18.7315 82.8171 19.0258 82.7533 19.2992 82.634C19.5725 82.5146 19.8194 82.3421 20.0255 82.1265C20.2316 81.9109 20.3927 81.6565 20.4996 81.378C21.265 79.4895 22.1765 77.6635 23.2257 75.9166C23.531 75.404 23.6203 74.7912 23.4739 74.2128C23.3274 73.6344 22.9572 73.1378 22.4447 72.8323Z" fill="#262628"/>
<path d="M20.7903 103.316C20.668 103.045 20.4934 102.802 20.2766 102.599C20.0598 102.397 19.805 102.239 19.527 102.135C19.2489 102.031 18.9531 101.984 18.6566 101.995C18.36 102.006 18.0686 102.075 17.799 102.2C17.5295 102.324 17.2872 102.5 17.086 102.718C16.8849 102.936 16.7289 103.192 16.627 103.471C16.5252 103.75 16.4795 104.046 16.4925 104.342C16.5056 104.639 16.5772 104.93 16.7032 105.198C17.676 107.31 18.8805 109.307 20.2945 111.152C20.4743 111.387 20.6985 111.583 20.9543 111.731C21.2101 111.879 21.4926 111.975 21.7855 112.014C22.0784 112.053 22.3761 112.033 22.6615 111.957C22.947 111.88 23.2146 111.749 23.4491 111.569C23.6836 111.389 23.8804 111.165 24.0282 110.909C24.1761 110.653 24.2721 110.371 24.3108 110.078C24.3495 109.785 24.3302 109.487 24.2538 109.202C24.1775 108.916 24.0457 108.649 23.8659 108.414C22.6549 106.834 21.6234 105.124 20.7903 103.316Z" fill="#262628"/>
</g>
<defs>
<clipPath id="clip0_27_260">
<rect width="144" height="144" fill="white" transform="translate(0 12.0337) rotate(-7.997)"/>
</clipPath>
</defs>
</svg>
