<svg width="616" height="85" viewBox="0 0 616 85" fill="none" xmlns="http://www.w3.org/2000/svg">
<g clip-path="url(#clip0_27_109)">
<rect width="84.6769" height="84.6769" rx="12" fill="#151515"/>
<path d="M42.4189 42.3384C42.4189 36.0169 47.5436 30.8923 53.8651 30.8923C60.1866 30.8923 65.3112 36.0171 65.3112 42.3384C65.3112 48.6601 60.1864 53.7846 53.8651 53.7846C47.5434 53.7846 42.4189 48.6599 42.4189 42.3384Z" fill="#00BCFF"/>
<path d="M19.5264 65.2309C19.5264 58.9094 24.651 53.7848 30.9725 53.7848L37.0723 50.5643L42.4186 53.7848V65.2309C42.4186 71.5525 37.294 76.677 30.9725 76.677C24.651 76.677 19.5264 71.5524 19.5264 65.2309Z" fill="#00CF7F"/>
<path d="M42.4188 8L36.1904 18.8206L42.4188 30.8922H53.7044C60.026 30.8922 65.1505 25.7676 65.1505 19.4461C65.1505 13.1246 60.0259 8 53.7044 8H42.4188Z" fill="#FF7361"/>
<path d="M19.3657 19.4461C19.3657 25.7676 24.4903 30.8922 30.8118 30.8922L36.8837 33.2374L42.4185 30.8922V8H30.8117C24.4903 8 19.3657 13.1246 19.3657 19.4461Z" fill="#FF4D12"/>
<path d="M19.5264 42.3385C19.5264 48.6601 24.651 53.7846 30.9725 53.7846H42.4186V30.8922H30.9725C24.651 30.8922 19.5264 36.017 19.5264 42.3385Z" fill="#B659FF"/>
<g clip-path="url(#clip1_27_109)">
<path d="M147.672 1.05847H202.359C210.65 1.05847 217.354 7.76201 217.354 16.0534V68.6237C217.354 76.9149 210.65 83.6186 202.359 83.6186H147.672C139.38 83.6185 132.677 76.9149 132.677 68.6236V16.0534C132.677 7.76201 139.38 1.05847 147.672 1.05847Z" fill="#54001A"/>
<path d="M163.443 22.6511V58.8505C163.443 59.2386 163.266 59.4149 162.949 59.4149H156.033C155.716 59.4149 155.575 59.2385 155.575 58.8505V22.6511C155.575 22.3336 155.751 22.1925 156.069 22.1925H162.949C163.16 22.1573 163.372 22.2983 163.407 22.5453C163.443 22.5805 163.443 22.6159 163.443 22.6511Z" fill="#FF3068"/>
<path d="M183.765 59.9795C181.154 60.0147 178.543 59.4855 176.179 58.3918C173.957 57.3686 172.122 55.6751 170.852 53.5935C169.547 51.4414 168.911 48.7598 168.911 45.5492C168.876 42.9383 169.547 40.3628 170.852 38.1048C172.193 35.8114 174.133 33.9061 176.462 32.636C178.931 31.26 181.895 30.5897 185.388 30.5897C185.565 30.5897 185.811 30.5897 186.129 30.6249C186.447 30.6601 186.799 30.6601 187.223 30.6955V19.5465C187.223 19.2995 187.329 19.1583 187.575 19.1583H194.738C194.914 19.1231 195.055 19.2641 195.091 19.4052V19.4758V53.0643C195.091 53.6994 195.126 54.4051 195.161 55.1812C195.232 55.9221 195.267 56.6278 195.302 57.2275C195.302 57.4744 195.196 57.6861 194.949 57.792C193.115 58.5681 191.174 59.1328 189.199 59.4855C187.434 59.8031 185.6 59.9795 183.765 59.9795ZM187.223 52.9231V37.3989C186.905 37.3283 186.588 37.2578 186.27 37.2224C185.882 37.1872 185.494 37.1518 185.106 37.1518C183.73 37.1518 182.354 37.4341 181.119 38.0692C179.919 38.6691 178.896 39.5511 178.12 40.6801C177.344 41.8092 176.956 43.3263 176.956 45.1609C176.92 46.3958 177.132 47.6306 177.555 48.7949C177.908 49.7475 178.437 50.5943 179.143 51.3C179.813 51.9351 180.625 52.4291 181.542 52.7112C182.495 53.0287 183.483 53.1698 184.471 53.1698C185 53.1698 185.494 53.1346 185.953 53.0992C186.411 53.1348 186.835 53.0641 187.223 52.9231Z" fill="#FF3068"/>
</g>
<path d="M280.349 1.05835H335.036C343.327 1.05835 350.031 7.76188 350.031 16.0533V68.6236C350.031 76.9148 343.327 83.6185 335.036 83.6185H280.349C272.058 83.6184 265.354 76.9148 265.354 68.6234V16.0533C265.354 7.76188 272.058 1.05835 280.349 1.05835Z" fill="#390000"/>
<path d="M306.387 50.5944H293.262L290.581 58.8856C290.51 59.2032 290.228 59.4149 289.91 59.3797H283.277C282.889 59.3797 282.783 59.168 282.889 58.7446L294.25 26.0381C294.356 25.6853 294.462 25.2972 294.603 24.8738C294.744 24.1329 294.814 23.3567 294.814 22.5804C294.779 22.404 294.92 22.2277 295.097 22.1923H295.203H304.235C304.517 22.1923 304.658 22.2981 304.693 22.4746L317.571 58.815C317.677 59.2032 317.571 59.3795 317.219 59.3795H309.845C309.598 59.4147 309.351 59.2384 309.28 58.9913L306.387 50.5944ZM295.308 43.4321H304.27L299.754 28.7195L295.308 43.4321Z" fill="#FF9A00"/>
<path d="M325.263 28.2256C324.099 28.2609 322.97 27.8023 322.123 26.9907C321.311 26.1087 320.888 24.9444 320.923 23.7447C320.888 22.5452 321.347 21.4161 322.194 20.6046C323.04 19.793 324.169 19.3696 325.334 19.3696C326.71 19.3696 327.768 19.793 328.544 20.6046C329.321 21.4513 329.744 22.5804 329.709 23.7447C329.744 24.9442 329.321 26.1086 328.474 26.9907C327.662 27.8375 326.463 28.2961 325.263 28.2256Z" fill="#FF9A00"/>
<path d="M321.312 58.8504V31.6832C321.312 31.3304 321.453 31.1892 321.77 31.1892H328.756C329.074 31.1892 329.215 31.3657 329.215 31.6832V58.8504C329.215 59.2386 329.074 59.4149 328.756 59.4149H321.841C321.488 59.4149 321.312 59.2032 321.312 58.8504Z" fill="#FF9A00"/>
<g clip-path="url(#clip2_27_109)">
<path d="M413.026 1.05847H467.713C476.004 1.05847 482.708 7.76201 482.708 16.0534V68.6237C482.708 76.9149 476.004 83.6186 467.713 83.6186H413.026C404.734 83.6185 398.031 76.9149 398.031 68.6236V16.0534C398.031 7.76201 404.734 1.05847 413.026 1.05847Z" fill="#001834"/>
<path d="M417.083 58.9564V22.6511C417.083 22.4042 417.189 22.263 417.436 22.263C418.036 22.263 418.6 22.263 419.412 22.2277C420.258 22.1925 421.14 22.1925 422.093 22.1571C423.046 22.1217 424.069 22.1219 425.163 22.0865C426.256 22.0513 427.315 22.0513 428.373 22.0513C431.266 22.0513 433.665 22.404 435.641 23.145C437.405 23.7448 439.028 24.7327 440.369 26.038C441.498 27.1671 442.38 28.5431 442.945 30.0602C443.474 31.542 443.756 33.0591 443.756 34.6468C443.756 37.6811 443.051 40.186 441.639 42.1619C440.228 44.1377 438.252 45.6196 435.959 46.4663C433.56 47.3483 430.913 47.6659 428.02 47.6659C427.174 47.6659 426.609 47.6659 426.256 47.6306C425.903 47.5954 425.409 47.5954 424.739 47.5954V58.921C424.774 59.1679 424.598 59.3796 424.351 59.415C424.316 59.415 424.28 59.415 424.21 59.415H417.506C417.224 59.415 417.083 59.2739 417.083 58.9564ZM424.775 29.0725V40.9273C425.269 40.9625 425.727 40.9979 426.151 40.9979H428.021C430.457 40.9979 433.271 40.4253 434.971 38.493C436.434 36.8299 436.439 33.5318 435.253 31.7188C433.846 29.5667 431.032 28.9432 428.62 29.0021C427.703 29.0021 426.891 29.0021 426.221 29.0373C425.515 29.0019 425.021 29.0371 424.775 29.0725Z" fill="#00A9FF"/>
<path d="M465.772 38.775C464.714 38.2105 463.585 37.8223 462.385 37.5754C461.08 37.2931 459.774 37.1168 458.433 37.1168C457.728 37.0816 456.987 37.1874 456.317 37.3637C455.858 37.4696 455.47 37.7165 455.223 38.0694C455.046 38.3517 454.941 38.7045 454.941 39.022C454.941 39.3396 455.082 39.6571 455.293 39.9394C455.611 40.3276 456.034 40.6451 456.493 40.892C457.304 41.3154 458.151 41.7036 458.998 42.0564C460.903 42.6914 462.738 43.5734 464.431 44.6319C465.596 45.3728 466.548 46.3607 467.219 47.5604C467.783 48.6894 468.065 49.9242 468.03 51.1943C468.065 52.8527 467.571 54.5108 466.654 55.8868C465.666 57.298 464.29 58.3919 462.703 59.027C460.974 59.7679 458.857 60.156 456.317 60.156C454.694 60.156 453.106 60.015 451.518 59.6974C450.283 59.4857 449.049 59.0976 447.919 58.5684C447.673 58.4273 447.496 58.1802 447.531 57.898V51.759C447.531 51.6531 447.567 51.5121 447.672 51.4414C447.778 51.3708 447.884 51.4062 447.99 51.4767C449.366 52.2882 450.813 52.8527 452.365 53.2054C453.706 53.5582 455.117 53.7347 456.528 53.7347C457.869 53.7347 458.821 53.5582 459.457 53.2407C460.021 52.9937 460.409 52.3939 460.409 51.7588C460.409 51.2648 460.127 50.8062 459.562 50.3476C458.998 49.889 457.834 49.3597 456.105 48.6893C454.305 48.0542 452.647 47.2074 451.095 46.149C450.001 45.3728 449.084 44.3496 448.413 43.15C447.849 42.021 447.567 40.7862 447.602 39.5513C447.602 38.0342 448.025 36.5876 448.801 35.2822C449.683 33.871 450.989 32.7419 452.506 32.0362C454.164 31.1894 456.246 30.8013 458.751 30.8013C460.197 30.8013 461.679 30.9071 463.126 31.1188C464.184 31.2599 465.207 31.5422 466.16 31.9303C466.301 31.9656 466.442 32.1068 466.513 32.2479C466.548 32.389 466.583 32.5302 466.583 32.6713V38.4222C466.583 38.5633 466.513 38.7045 466.407 38.775C466.09 38.8456 465.913 38.8456 465.772 38.775Z" fill="#00A9FF"/>
</g>
<g clip-path="url(#clip3_27_109)">
<path d="M606.235 0H539.857C534.804 0 530.708 4.09674 530.708 9.14957V75.5275C530.708 80.5802 534.804 84.6769 539.857 84.6769H606.235C611.288 84.6769 615.384 80.5802 615.384 75.5274V9.14957C615.384 4.09674 611.288 0 606.235 0Z" fill="white"/>
<path d="M600.813 36.458C602.284 32.0434 601.778 27.2072 599.425 23.1917C595.888 17.0326 588.777 13.864 581.831 15.3551C578.742 11.8744 574.303 9.89511 569.649 9.92339C562.55 9.90719 556.251 14.4779 554.067 21.2326C549.507 22.1665 545.57 25.0212 543.266 29.0672C539.703 35.21 540.515 42.9533 545.276 48.221C543.805 52.6356 544.312 57.4718 546.664 61.4873C550.201 67.6464 557.313 70.815 564.258 69.3239C567.345 72.8046 571.786 74.7839 576.44 74.7537C583.543 74.7719 589.844 70.1972 592.028 63.4364C596.589 62.5025 600.525 59.6478 602.829 55.6018C606.388 49.4589 605.574 41.7217 600.815 36.4541L600.813 36.458ZM576.444 70.5172C573.602 70.5211 570.849 69.5265 568.667 67.7051C568.766 67.6524 568.938 67.5573 569.049 67.4883L581.959 60.0326C582.62 59.6579 583.025 58.9548 583.021 58.195V39.9954L588.477 43.1459C588.535 43.1743 588.574 43.231 588.582 43.2959V58.3674C588.574 65.0692 583.146 70.503 576.444 70.5172ZM550.341 59.3681C548.917 56.9085 548.405 54.0255 548.893 51.2275C548.988 51.2843 549.156 51.3876 549.276 51.4564L562.185 58.9121C562.84 59.295 563.65 59.295 564.307 58.9121L580.067 49.8114V56.1122C580.071 56.177 580.041 56.2399 579.99 56.2804L566.941 63.8151C561.128 67.162 553.705 65.1726 550.344 59.3681H550.341ZM546.944 31.1884C548.362 28.7248 550.601 26.8406 553.267 25.862C553.267 25.9735 553.261 26.17 553.261 26.3077V41.2211C553.257 41.9789 553.662 42.6818 554.32 43.0567L570.081 52.1555L564.625 55.3059C564.57 55.3423 564.501 55.3484 564.44 55.3221L551.389 47.7813C545.588 44.4221 543.599 37.0008 546.942 31.1904L546.944 31.1884ZM591.771 41.6202L576.011 32.5194L581.467 29.371C581.522 29.3346 581.59 29.3285 581.651 29.3548L594.703 36.8895C600.513 40.2467 602.505 47.68 599.148 53.4907C597.728 55.9503 595.491 57.8343 592.827 58.8151V43.456C592.833 42.6982 592.429 41.9973 591.773 41.6203H591.771V41.6202ZM597.201 33.4474C597.106 33.3887 596.938 33.2873 596.818 33.2185L583.908 25.7628C583.254 25.3799 582.443 25.3799 581.787 25.7628L566.027 34.8636V28.5627C566.023 28.4979 566.053 28.4351 566.104 28.3945L579.153 20.8659C584.966 17.5129 592.397 19.5084 595.748 25.3232C597.164 27.7787 597.677 30.6535 597.197 33.4475L597.201 33.4474ZM563.061 44.6775L557.603 41.5271C557.544 41.4988 557.505 41.4421 557.497 41.3772V26.3057C557.501 19.5956 562.945 14.1577 569.655 14.1619C572.494 14.1619 575.241 15.1586 577.423 16.9739C577.324 17.0265 577.154 17.1218 577.04 17.1907L564.131 24.6464C563.47 25.0212 563.065 25.7223 563.069 26.482L563.061 44.6735V44.6775H563.061ZM566.025 38.2875L573.045 34.2334L580.065 38.2855V46.3915L573.045 50.4436L566.025 46.3915V38.2875Z" fill="black"/>
</g>
</g>
<defs>
<clipPath id="clip0_27_109">
<rect width="615.385" height="84.6769" fill="white"/>
</clipPath>
<clipPath id="clip1_27_109">
<rect width="84.6769" height="84.6769" fill="white" transform="translate(132.677)"/>
</clipPath>
<clipPath id="clip2_27_109">
<rect width="84.6769" height="84.6769" fill="white" transform="translate(398.031)"/>
</clipPath>
<clipPath id="clip3_27_109">
<rect width="84.6769" height="84.6769" fill="white" transform="translate(530.708)"/>
</clipPath>
</defs>
</svg>
